<?xml version="1.0" encoding="utf-8"?>
<!-- Generator: Adobe Illustrator 22.0.1, SVG Export Plug-In . SVG Version: 6.00 Build 0)  -->
<svg version="1.1" id="Слой_1" xmlns="http://www.w3.org/2000/svg" xmlns:xlink="http://www.w3.org/1999/xlink" x="0px" y="0px"
	 viewBox="0 0 20.5 20.6" style="enable-background:new 0 0 20.5 20.6;" xml:space="preserve">
<path d="M20.3,18.9l-8.6-8.6l8.6-8.6c0.3-0.3,0.2-0.9-0.1-1.3c-0.4-0.4-0.9-0.5-1.3-0.1l-8.6,8.6L1.6,0.3C1.3,0,0.8,0,0.3,0.4
	C0,0.8-0.1,1.3,0.2,1.7l8.6,8.6l-8.6,8.6c-0.3,0.3-0.3,0.8,0.1,1.3c0.4,0.4,0.9,0.5,1.3,0.1l8.6-8.6l8.6,8.6
	c0.3,0.3,0.9,0.2,1.3-0.1C20.5,19.9,20.6,19.3,20.3,18.9z"/>
</svg>
