<?xml version="1.0" encoding="utf-8"?>
<!-- Generator: Adobe Illustrator 22.0.1, SVG Export Plug-In . SVG Version: 6.00 Build 0)  -->
<svg version="1.1" id="Слой_1" xmlns="http://www.w3.org/2000/svg" xmlns:xlink="http://www.w3.org/1999/xlink" x="0px" y="0px"
	 viewBox="0 0 28 14" style="enable-background:new 0 0 28 14;" xml:space="preserve">
<g>
	<path d="M27.2,14H0.8C0.3,14,0,13.5,0,13l0,0c0-0.6,0.4-1,0.8-1h26.4c0.5,0,0.8,0.5,0.8,1l0,0C28,13.5,27.6,14,27.2,14z"/>
</g>
<g>
	<path d="M27.2,2H0.8C0.3,2,0,1.5,0,1l0,0c0-0.6,0.4-1,0.8-1h26.4C27.7,0,28,0.5,28,1l0,0C28,1.5,27.6,2,27.2,2z"/>
</g>
</svg>
