<?xml version="1.0" encoding="utf-8"?>
<!-- Generator: Adobe Illustrator 22.0.1, SVG Export Plug-In . SVG Version: 6.00 Build 0)  -->
<svg version="1.1" id="Слой_1" xmlns="http://www.w3.org/2000/svg" xmlns:xlink="http://www.w3.org/1999/xlink" x="0px" y="0px"
	 viewBox="0 0 28 28" style="enable-background:new 0 0 28 28;" xml:space="preserve">
<path d="M15.4,14L26.8,2.7c0.4-0.4,0.4-1.1-0.1-1.5c-0.4-0.4-1-0.4-1.4,0L14,12.6L2.7,1.3c-0.4-0.4-1-0.4-1.4,0
	c-0.4,0.4-0.4,1,0,1.4L12.6,14L1.3,25.3c-0.4,0.4-0.4,1,0,1.4c0.4,0.4,1,0.4,1.4,0L14,15.4l11.3,11.3c0.4,0.4,1.1,0.4,1.4,0
	c0.4-0.4,0.4-1,0-1.4L15.4,14z"/>
</svg>
