<?xml version="1.0" encoding="utf-8"?>
<!-- Generator: Adobe Illustrator 22.0.1, SVG Export Plug-In . SVG Version: 6.00 Build 0)  -->
<svg version="1.1" id="Слой_1" xmlns="http://www.w3.org/2000/svg" xmlns:xlink="http://www.w3.org/1999/xlink" x="0px" y="0px"
	 viewBox="0 0 26 26" style="enable-background:new 0 0 26 26;" xml:space="preserve">
<path d="M14.4,13L25.7,1.7c0.4-0.4,0.4-1.1,0-1.4c-0.4-0.4-1-0.4-1.4,0L13,11.6L1.7,0.3c-0.4-0.4-1.1-0.4-1.4,0
	c-0.4,0.4-0.4,1.1,0,1.4L11.6,13L0.3,24.3c-0.4,0.4-0.4,1,0,1.4c0.4,0.4,1,0.4,1.4,0L13,14.5l11.3,11.3c0.4,0.4,1.1,0.4,1.4,0
	c0.4-0.4,0.4-1.1,0-1.4L14.4,13z"/>
</svg>
