<?xml version="1.0" encoding="utf-8"?>
<!-- Generator: Adobe Illustrator 22.0.1, SVG Export Plug-In . SVG Version: 6.00 Build 0)  -->
<svg version="1.1" id="Слой_1" xmlns="http://www.w3.org/2000/svg" xmlns:xlink="http://www.w3.org/1999/xlink" x="0px" y="0px"
	 viewBox="0 0 36 18" style="enable-background:new 0 0 36 18;" xml:space="preserve">
<g>
	<path d="M35,18H1c-0.6,0-1-0.5-1-1l0,0c0-0.6,0.5-1,1-1H35c0.6,0,1,0.5,1,1l0,0C36,17.5,35.5,18,35,18z"/>
</g>
<g>
	<path d="M35,2H1C0.4,2,0,1.5,0,1l0,0c0-0.6,0.5-1,1-1H35c0.6,0,1,0.5,1,1l0,0C36,1.5,35.5,2,35,2z"/>
</g>
</svg>
