<?xml version="1.0" encoding="utf-8"?>
<!-- Generator: Adobe Illustrator 22.0.1, SVG Export Plug-In . SVG Version: 6.00 Build 0)  -->
<svg version="1.1" id="Слой_1" xmlns="http://www.w3.org/2000/svg" xmlns:xlink="http://www.w3.org/1999/xlink" x="0px" y="0px"
	 viewBox="0 0 180 180" style="enable-background:new 0 0 180 180;" xml:space="preserve">
<style type="text/css">
	.st0{fill:url(#SVGID_1_);}
	.st1{fill:#FFFCFC;}
</style>
<linearGradient id="SVGID_1_" gradientUnits="userSpaceOnUse" x1="61.4711" y1="196.4711" x2="118.5289" y2="-16.4711">
	<stop  offset="0" style="stop-color:#FD6342"/>
	<stop  offset="1" style="stop-color:#FD1D42"/>
</linearGradient>
<rect class="st0" width="180" height="180"/>
<path class="st1" d="M81.3,108.9l8.5,4.3c0.4,0.2,0.6,0.8,0.2,1.2l-7,8.1c-0.2,0.2-0.5,0.4-0.8,0.4c-0.1,0-0.2,0-0.3-0.1
	c-0.4-0.1-0.7-0.5-0.7-0.9l-0.9-12.3C80.2,109.1,80.8,108.7,81.3,108.9z"/>
<path class="st1" d="M126.3,57.7L108,116c-0.1,0.3-0.3,0.5-0.6,0.7c-0.3,0.1-0.6,0.1-0.9,0l-9.4-4.5l0,0l-16.7-8.6
	c-0.4-0.2-0.7-0.6-0.7-1.1l0,0c0-0.3,0.1-0.6,0.3-0.8L95,86.1l-19.2,14.4c-0.3,0.2-0.8,0.3-1.1,0.1L72,99.2l0,0l-17.1-8.4
	c-0.4-0.2-0.6-0.6-0.6-1c0-0.4,0.2-0.8,0.6-1l69.8-32.5c0.4-0.2,0.8-0.1,1.2,0.2C126.3,56.9,126.4,57.3,126.3,57.7z"/>
</svg>
