<?xml version="1.0" encoding="utf-8"?>
<!-- Generator: Adobe Illustrator 22.0.1, SVG Export Plug-In . SVG Version: 6.00 Build 0)  -->
<svg version="1.1" id="Слой_1" xmlns="http://www.w3.org/2000/svg" xmlns:xlink="http://www.w3.org/1999/xlink" x="0px" y="0px"
	 viewBox="0 0 72.1 66.7" style="enable-background:new 0 0 72.1 66.7;" xml:space="preserve">
<style type="text/css">
	.st0{fill:#FFFCFC;}
</style>
<g>
	<path class="st0" d="M35.6,57c-0.2-0.1-0.4-0.2-0.7-0.3c-0.5-0.2-1-0.5-1.4-0.7c-0.1,0-0.2-0.1-0.2-0.1c-1.7-0.9-3.4-1.7-5.1-2.6
		c-0.2-0.1-0.4-0.2-0.6-0.3c-0.2-0.1-0.3-0.2-0.5-0.2c-0.2-0.1-0.3-0.1-0.5,0c-0.2,0.1-0.4,0.2-0.5,0.5c0,0.1,0,0.3,0,0.5
		c0,0.2,0,0.3,0,0.5c0,0.3,0,0.6,0.1,0.9c0,0.2,0,0.4,0,0.6c0,0.2,0,0.4,0,0.6c0,0.2,0,0.5,0.1,0.7c0,0.2,0,0.5,0.1,0.7
		c0,0.3,0,0.5,0.1,0.8c0,0.3,0,0.5,0.1,0.8c0,0.3,0,0.5,0.1,0.8c0,0.3,0,0.5,0.1,0.8c0,0.2,0,0.5,0.1,0.7c0,0.5,0.1,0.9,0.1,1.4
		c0,0.2,0,0.4,0,0.6c0,0.2,0,0.4,0,0.6c0,0.6,0,1.2,0.1,1.8c0,0.2,0.1,0.3,0.2,0.5c0.1,0.1,0.3,0.3,0.5,0.3c0.2,0.1,0.4,0.1,0.6,0
		c0.2-0.1,0.4-0.2,0.5-0.3l7-8.1C36.2,57.8,36,57.2,35.6,57z"/>
	<path class="st0" d="M71.7,0.3c-0.4-0.3-0.8-0.4-1.2-0.2c0,0-69.8,32.5-69.8,32.5c-0.4,0.2-0.6,0.6-0.6,1s0.2,0.8,0.6,1L17.8,43
		l2.7,1.4c0.3,0.2,0.8,0.1,1.1-0.1l19.2-14.4l-15,15.6c-0.2,0.2-0.3,0.5-0.3,0.8c0,0.5,0.3,0.9,0.7,1.1L42.9,56l9.4,4.5
		c0.3,0.1,0.6,0.1,0.9,0c0.3-0.2,0.5-0.4,0.6-0.7L72.1,1.5C72.2,1.1,72.1,0.7,71.7,0.3z"/>
</g>
</svg>
