<svg xmlns="http://www.w3.org/2000/svg" viewBox="0 0 2000 2000"><defs><style>.cls-1,.cls-2{fill:#17151c;}.cls-2{opacity:0.07;}</style></defs><title>logo</title><g id="Слой_2" data-name="Слой 2"><g id="тш"><path id="i" class="cls-1" d="M1416.5,1983.5A16.5,16.5,0,0,1,1400,2000H300C134.31,2000,0,1865.69,0,1700V600a16.5,16.5,0,0,1,33,0V1700a266.75,266.75,0,0,0,267,267H1400A16.5,16.5,0,0,1,1416.5,1983.5Z"/><path id="n_bg" data-name="n bg" class="cls-2" d="M2000,1550v143.8a365.81,365.81,0,0,1-1.86,40.6c-1.07,9.55-2.75,19-4.74,28.42-1.36,6.39-3,12.89-4.76,19.22a282.38,282.38,0,0,1-9.85,29c-.39,1-.79,2-1.19,3-3.3,8-6.91,16-11,23.64-.14.29-.29.57-.44.86-2.31,4.49-4.85,8.85-7.32,13.24a21.36,21.36,0,0,0,1.84-7.65,16.52,16.52,0,0,0-12-15.87l-10.8-3.06-3.44-1-54-15.27a1260.89,1260.89,0,0,1-326.66-145l-94.34-59.12c-2.41-1.51-4.8-3-7.18-4.61q-14.14-9.27-27.52-19.71-12.28-9.56-23.8-20l-8.36-7.61A1292.82,1292.82,0,0,1,1105,1173.23l-90.35-180.64L928.22,817.73A1334.44,1334.44,0,0,0,793.49,600.58,1334.59,1334.59,0,0,0,619.7,413.15c-10.38-9.23-21.24-18-32.48-26.26q-13.23-9.71-27.11-18.41l-1.68-1.05-95-59.51A1293.86,1293.86,0,0,0,128.87,159.4L81.78,146.07l-15-4.25L60.32,140l-.38-.1-.18-.05-.19,0A16.49,16.49,0,0,0,42,146.87c.59-1,1.2-2,1.8-3l1.89-3a295.16,295.16,0,0,1,21.94-30.56A300.61,300.61,0,0,1,92.89,83c2-1.92,4.17-3.72,6.14-5.69l.21-.19a344.33,344.33,0,0,1,40.64-30.82c.49-.32,1-.64,1.48-.94A298.31,298.31,0,0,1,290.53.15c2.88,0,5.75,0,8.6-.13A16.68,16.68,0,0,0,283.5,16.5,16.5,16.5,0,0,0,300,33H1700a266.75,266.75,0,0,1,267,267V1550a16.5,16.5,0,0,0,33,0Z"/><path id="n" class="cls-1" d="M1948.73,1828.18l-10.8-3.06-3.44-1-54-15.27a1260.89,1260.89,0,0,1-326.66-145l-94.34-59.12c-2.41-1.51-4.8-3-7.18-4.61q-14.14-9.27-27.52-19.71-12.28-9.56-23.8-20l-8.36-7.61A1292.82,1292.82,0,0,1,1105,1173.23l-90.35-180.64L928.22,817.73A1334.44,1334.44,0,0,0,793.49,600.58,1334.59,1334.59,0,0,0,619.7,413.15c-10.38-9.23-21.24-18-32.48-26.26q-13.23-9.71-27.11-18.41l-1.68-1.05-95-59.51A1293.86,1293.86,0,0,0,128.87,159.4L81.78,146.07l-15-4.25L60.32,140l-.38-.1-.18-.05-.19,0A16.49,16.49,0,0,0,42,146.87l-.07.11-.23.37c-.16.26-.31.52-.46.79a1.28,1.28,0,0,0-.08.17A16.5,16.5,0,0,0,51,171.65l12.82,3.63,1.7.48,54.34,15.39a1261.26,1261.26,0,0,1,326,144.73l96.67,60.56q2.59,1.62,5.16,3.3,14.17,9.15,27.6,19.52,11.55,8.89,22.46,18.59A1291.67,1291.67,0,0,1,898.63,832.36l86.49,174.93L1075.5,1188a1325.62,1325.62,0,0,0,294.9,389.26l8.36,7.61c10.87,9.88,22.27,19.25,34.09,28q14,10.39,28.73,19.66l.35.22,94.35,59.12a1293.87,1293.87,0,0,0,335.2,148.73l46.8,13.23,7.2,2,15,4.23a16.48,16.48,0,0,0,17.61-7.1l.28-.45c.16-.26.31-.52.46-.79,0,0,0,0,0,0a17.61,17.61,0,0,0,1.26-3.17A16.51,16.51,0,0,0,1948.73,1828.18Z"/><path id="n_top" data-name="n top" class="cls-1" d="M1700,0H300a16.5,16.5,0,0,0,0,33H1700a266.75,266.75,0,0,1,267,267V1550a16.5,16.5,0,0,0,33,0V300C2000,134.31,1865.69,0,1700,0Z"/></g></g></svg>