<?xml version="1.0" encoding="utf-8"?>
<!-- Generator: Adobe Illustrator 22.0.1, SVG Export Plug-In . SVG Version: 6.00 Build 0)  -->
<svg version="1.1" id="Capa_1" xmlns="http://www.w3.org/2000/svg" xmlns:xlink="http://www.w3.org/1999/xlink" x="0px" y="0px"
	 viewBox="0 0 26 21" style="enable-background:new 0 0 26 21;" xml:space="preserve">
<style type="text/css">
	.st0{fill:#17151C;}
</style>
<g>
	<path class="st0" d="M10.3,16C10.4,16,10.4,16,10.3,16l2.5,1.3c0.1,0.1,0.2,0.2,0.1,0.3l-2,2.3c-0.1,0.1-0.1,0.1-0.2,0.1
		c0,0-0.1,0-0.1,0c-0.1,0-0.2-0.1-0.2-0.3l-0.3-3.5C10.1,16.1,10.2,16,10.3,16 M10.3,15L10.3,15c-0.3,0-0.6,0.1-0.9,0.4
		c-0.2,0.2-0.3,0.6-0.3,0.9l0.3,3.5c0,0.5,0.4,0.9,0.9,1.1c0.1,0,0.3,0.1,0.4,0.1c0.4,0,0.7-0.2,1-0.4l2-2.3c0.2-0.3,0.3-0.6,0.3-1
		c-0.1-0.4-0.3-0.7-0.6-0.8l-2.4-1.2C10.7,15,10.5,15,10.3,15L10.3,15z"/>
	<path class="st0" d="M22.9,1c0.1,0,0.1,0,0.2,0.1c0.1,0.1,0.1,0.2,0.1,0.3L18,18c0,0.1-0.1,0.2-0.2,0.2c0,0-0.1,0-0.1,0
		c0,0-0.1,0-0.1,0l-2.7-1.3l0,0l-4.7-2.4C10,14.4,10,14.3,10,14.1c0-0.1,0-0.2,0.1-0.2l4.3-4.4l-5.5,4.1c-0.1,0-0.1,0.1-0.2,0.1
		c0,0-0.1,0-0.1,0l-0.8-0.4l0,0l-4.9-2.4c-0.1-0.1-0.2-0.2-0.2-0.3c0-0.1,0.1-0.2,0.2-0.3L22.8,1C22.9,1,22.9,1,22.9,1 M22.9,0.1
		c-0.2,0-0.4,0-0.5,0.1L2.5,9.4c-0.4,0.2-0.7,0.7-0.7,1.1c0,0.5,0.3,0.9,0.7,1.2l4.9,2.4l0.8,0.4c0.2,0.1,0.4,0.1,0.6,0.1
		c0.1,0,0.3,0,0.4-0.1c0.1,0.3,0.3,0.6,0.7,0.8l4.7,2.4l2.7,1.3c0.2,0.1,0.4,0.1,0.5,0.1c0.2,0,0.3,0,0.5-0.1
		c0.3-0.1,0.6-0.4,0.7-0.8l5.2-16.6c0.2-0.5,0-1-0.4-1.3C23.5,0.2,23.2,0.1,22.9,0.1L22.9,0.1z"/>
</g>
</svg>
