<?xml version="1.0" encoding="utf-8"?>
<!-- Generator: Adobe Illustrator 22.0.1, SVG Export Plug-In . SVG Version: 6.00 Build 0)  -->
<svg version="1.1" id="Слой_1" xmlns="http://www.w3.org/2000/svg" xmlns:xlink="http://www.w3.org/1999/xlink" x="0px" y="0px"
	 viewBox="0 0 2000 2000" style="enable-background:new 0 0 2000 2000;" xml:space="preserve">
<style type="text/css">
	.st0{fill:#FFFFFF;}
</style>
<title>logo</title>
<g id="logo">
	<path id="i" class="st0" d="M1213.2,1503.6c0,4.7-3.8,8.4-8.4,8.4H641.6c-84.8,0-153.6-68.8-153.6-153.6V795.2
		c0-4.7,3.8-8.4,8.4-8.4s8.4,3.8,8.4,8.4v563.2c0,18.5,3.6,36.4,10.7,53.2c6.9,16.3,16.7,30.9,29.3,43.5
		c12.6,12.6,27.2,22.4,43.5,29.3c16.8,7.1,34.7,10.7,53.2,10.7h563.2C1209.5,1495.1,1213.2,1498.9,1213.2,1503.6z"/>
	<path id="n" class="st0" d="M1485.7,1424l-5.5-1.6l-1.8-0.5l-27.7-7.8c-59-16.7-115.3-41.7-167.2-74.2l-48.3-30.3
		c-1.2-0.8-2.5-1.6-3.7-2.4c-4.8-3.2-9.5-6.5-14.1-10.1c-4.2-3.3-8.3-6.7-12.2-10.3l-4.3-3.9c-60.9-55.4-110.4-120.8-147.2-194.4
		l-46.3-92.5l-44.3-89.5c-19.3-39.1-42.5-76.5-69-111.2c-26.4-34.7-56.4-67-89-96c-5.3-4.7-10.9-9.2-16.6-13.4
		c-4.5-3.3-9.1-6.5-13.9-9.4l-0.9-0.5l-48.6-30.5c-53.2-33.3-110.9-58.9-171.3-76l-24.1-6.8l-7.7-2.2l-3.3-0.9c-0.1,0-0.1,0-0.2-0.1
		c0,0-0.1,0-0.1,0c0,0-0.1,0-0.1,0c-3.5-0.8-7.1,0.7-9,3.6c0,0,0,0,0,0.1c0,0.1-0.1,0.1-0.1,0.2c-0.1,0.1-0.2,0.3-0.2,0.4
		c0,0,0,0.1,0,0.1c-0.3,0.5-0.5,1-0.6,1.6c-1.3,4.4,1.3,9.1,5.7,10.4l6.6,1.9l0.9,0.2l27.8,7.9c58.9,16.7,115.1,41.6,166.9,74.1
		l49.5,31c0.9,0.6,1.8,1.1,2.6,1.7c4.8,3.1,9.6,6.5,14.1,10c3.9,3,7.8,6.2,11.5,9.5c64.1,57.1,116,125,154,202l44.3,89.6l46.3,92.5
		c37.8,75.5,88.6,142.5,151,199.3l4.3,3.9c5.6,5.1,11.4,9.9,17.5,14.4c4.8,3.5,9.7,6.9,14.7,10.1c0.1,0,0.1,0.1,0.2,0.1l48.3,30.3
		c53.3,33.4,111.1,59,171.6,76.1l24,6.8l3.7,1l7.7,2.2c3.5,0.8,7.1-0.7,9-3.6c0-0.1,0.1-0.2,0.1-0.2c0.1-0.1,0.2-0.3,0.2-0.4
		c0,0,0,0,0,0c0.3-0.5,0.5-1,0.6-1.6C1492.8,1430,1490.2,1425.3,1485.7,1424z"/>
	<path id="n_top" class="st0" d="M1358.4,488H641.6c-4.7,0-8.4,3.8-8.4,8.4s3.8,8.4,8.4,8.4h646.7h70.1c18.5,0,36.4,3.6,53.2,10.7
		c16.3,6.9,30.9,16.7,43.5,29.3c12.6,12.6,22.4,27.2,29.3,43.5c7.1,16.8,10.7,34.7,10.7,53.2v70.1v569.9c0,4.7,3.8,8.4,8.4,8.4
		s8.4-3.8,8.4-8.4v-640C1512,556.8,1443.2,488,1358.4,488z"/>
</g>
</svg>
